<svg width="83" height="16" viewBox="0 0 83 16" fill="none" xmlns="http://www.w3.org/2000/svg">
<path d="M2.19301 6.1285C1.73967 6.1285 1.34867 6.0435 1.02001 5.8735C0.697005 5.69784 0.444839 5.45134 0.263505 5.134C0.0878387 4.811 5.39795e-06 4.4285 5.39795e-06 3.9865C5.39795e-06 3.55584 0.0878387 3.179 0.263505 2.856C0.439172 2.533 0.680005 2.28084 0.986005 2.0995C1.29201 1.91817 1.64051 1.8275 2.03151 1.8275C2.32051 1.8275 2.57834 1.87567 2.80501 1.972C3.03167 2.06267 3.22434 2.19867 3.38301 2.38C3.54734 2.55567 3.66917 2.771 3.74851 3.026C3.83351 3.281 3.87601 3.56717 3.87601 3.8845C3.87601 3.98084 3.84767 4.0545 3.79101 4.1055C3.73434 4.15084 3.64934 4.1735 3.53601 4.1735H0.680005V3.6465H3.29801L3.15351 3.7655C3.15351 3.48217 3.11101 3.24134 3.02601 3.043C2.94667 2.84467 2.82484 2.6945 2.66051 2.5925C2.50184 2.48484 2.30351 2.431 2.06551 2.431C1.79917 2.431 1.57251 2.49334 1.38551 2.618C1.20417 2.74267 1.06534 2.9155 0.969005 3.1365C0.872672 3.3575 0.824505 3.61534 0.824505 3.91V3.961C0.824505 4.45967 0.940672 4.8365 1.17301 5.0915C1.41101 5.34084 1.75384 5.4655 2.20151 5.4655C2.37151 5.4655 2.55001 5.44284 2.73701 5.3975C2.92967 5.35217 3.11101 5.27567 3.28101 5.168C3.37734 5.11134 3.46234 5.08584 3.53601 5.0915C3.61534 5.09717 3.67767 5.12267 3.72301 5.168C3.77401 5.21334 3.80517 5.27 3.81651 5.338C3.82784 5.406 3.81651 5.47684 3.78251 5.5505C3.74851 5.6185 3.68901 5.68084 3.60401 5.7375C3.41134 5.86784 3.18751 5.967 2.93251 6.035C2.67751 6.09734 2.43101 6.1285 2.19301 6.1285ZM6.95843 6.1285C6.5051 6.1285 6.1141 6.0435 5.78543 5.8735C5.46243 5.69784 5.21027 5.45134 5.02893 5.134C4.85327 4.811 4.76543 4.4285 4.76543 3.9865C4.76543 3.55584 4.85327 3.179 5.02893 2.856C5.2046 2.533 5.44543 2.28084 5.75143 2.0995C6.05743 1.91817 6.40593 1.8275 6.79694 1.8275C7.08594 1.8275 7.34377 1.87567 7.57043 1.972C7.7971 2.06267 7.98977 2.19867 8.14844 2.38C8.31277 2.55567 8.4346 2.771 8.51393 3.026C8.59894 3.281 8.64144 3.56717 8.64144 3.8845C8.64144 3.98084 8.6131 4.0545 8.55644 4.1055C8.49977 4.15084 8.41477 4.1735 8.30144 4.1735H5.44543V3.6465H8.06343L7.91894 3.7655C7.91894 3.48217 7.87644 3.24134 7.79144 3.043C7.7121 2.84467 7.59027 2.6945 7.42594 2.5925C7.26727 2.48484 7.06894 2.431 6.83094 2.431C6.5646 2.431 6.33793 2.49334 6.15093 2.618C5.9696 2.74267 5.83077 2.9155 5.73443 3.1365C5.6381 3.3575 5.58993 3.61534 5.58993 3.91V3.961C5.58993 4.45967 5.7061 4.8365 5.93843 5.0915C6.17643 5.34084 6.51927 5.4655 6.96694 5.4655C7.13694 5.4655 7.31544 5.44284 7.50244 5.3975C7.6951 5.35217 7.87644 5.27567 8.04644 5.168C8.14277 5.11134 8.22777 5.08584 8.30144 5.0915C8.38077 5.09717 8.4431 5.12267 8.48844 5.168C8.53944 5.21334 8.5706 5.27 8.58194 5.338C8.59327 5.406 8.58194 5.47684 8.54794 5.5505C8.51394 5.6185 8.45444 5.68084 8.36944 5.7375C8.17677 5.86784 7.95294 5.967 7.69794 6.035C7.44293 6.09734 7.19643 6.1285 6.95843 6.1285ZM10.2024 6.1115C10.0664 6.1115 9.96153 6.07467 9.88786 6.001C9.8142 5.92167 9.77736 5.814 9.77736 5.678V2.278C9.77736 2.13634 9.8142 2.02867 9.88786 1.955C9.96153 1.88134 10.0635 1.8445 10.1939 1.8445C10.3299 1.8445 10.4319 1.88134 10.4999 1.955C10.5735 2.02867 10.6104 2.13634 10.6104 2.278V2.941L10.5169 2.788C10.6415 2.47067 10.837 2.23267 11.1034 2.074C11.3697 1.90967 11.6757 1.8275 12.0214 1.8275C12.35 1.8275 12.622 1.88984 12.8374 2.0145C13.0584 2.1335 13.2227 2.31767 13.3304 2.567C13.438 2.81067 13.4919 3.1195 13.4919 3.4935V5.678C13.4919 5.814 13.455 5.92167 13.3814 6.001C13.3077 6.07467 13.2029 6.1115 13.0669 6.1115C12.9252 6.1115 12.8175 6.07467 12.7439 6.001C12.6702 5.92167 12.6334 5.814 12.6334 5.678V3.5445C12.6334 3.1875 12.5625 2.92684 12.4209 2.7625C12.2849 2.59817 12.0695 2.516 11.7749 2.516C11.4292 2.516 11.1515 2.62367 10.9419 2.839C10.7379 3.05434 10.6359 3.34334 10.6359 3.706V5.678C10.6359 5.967 10.4914 6.1115 10.2024 6.1115ZM16.4398 6.1115C16.3208 6.1115 16.216 6.08034 16.1253 6.018C16.0403 5.95567 15.9695 5.85934 15.9128 5.729L14.4933 2.431C14.448 2.329 14.431 2.23267 14.4423 2.142C14.4537 2.05134 14.4962 1.9805 14.5698 1.9295C14.6435 1.87284 14.7427 1.8445 14.8673 1.8445C14.975 1.8445 15.06 1.87 15.1223 1.921C15.1847 1.972 15.2413 2.05984 15.2923 2.1845L16.5758 5.3465H16.3378L17.6468 2.1845C17.6978 2.05984 17.7545 1.972 17.8168 1.921C17.8848 1.87 17.9783 1.8445 18.0973 1.8445C18.1993 1.8445 18.2787 1.87284 18.3353 1.9295C18.3977 1.9805 18.4345 2.05134 18.4458 2.142C18.4628 2.227 18.4487 2.3205 18.4033 2.4225L16.9668 5.729C16.9158 5.85934 16.845 5.95567 16.7543 6.018C16.6637 6.08034 16.5588 6.1115 16.4398 6.1115ZM21.1766 6.1285C20.7573 6.1285 20.3946 6.04067 20.0886 5.865C19.7883 5.68934 19.5531 5.44 19.3831 5.117C19.2131 4.794 19.1281 4.41434 19.1281 3.978C19.1281 3.64367 19.1763 3.34617 19.2726 3.0855C19.369 2.82484 19.505 2.601 19.6806 2.414C19.862 2.22134 20.0773 2.07684 20.3266 1.9805C20.5816 1.8785 20.865 1.8275 21.1766 1.8275C21.5903 1.8275 21.9473 1.91534 22.2476 2.091C22.5536 2.26667 22.7916 2.516 22.9616 2.839C23.1316 3.15634 23.2166 3.536 23.2166 3.978C23.2166 4.30667 23.1685 4.60417 23.0721 4.8705C22.9758 5.13684 22.837 5.3635 22.6556 5.5505C22.48 5.7375 22.2646 5.882 22.0096 5.984C21.7603 6.08034 21.4826 6.1285 21.1766 6.1285ZM21.1766 5.4655C21.409 5.4655 21.613 5.40884 21.7886 5.2955C21.9643 5.18217 22.1003 5.015 22.1966 4.794C22.2986 4.573 22.3496 4.301 22.3496 3.978C22.3496 3.49067 22.242 3.12234 22.0266 2.873C21.8113 2.62367 21.528 2.499 21.1766 2.499C20.9386 2.499 20.7318 2.55567 20.5561 2.669C20.3805 2.77667 20.2416 2.941 20.1396 3.162C20.0433 3.383 19.9951 3.655 19.9951 3.978C19.9951 4.45967 20.1028 4.828 20.3181 5.083C20.5335 5.338 20.8196 5.4655 21.1766 5.4655ZM25.8598 6.1285C25.5254 6.1285 25.2449 6.06617 25.0183 5.9415C24.7973 5.81684 24.6301 5.63267 24.5168 5.389C24.4091 5.13967 24.3553 4.828 24.3553 4.454V2.278C24.3553 2.13067 24.3921 2.023 24.4658 1.955C24.5394 1.88134 24.6443 1.8445 24.7803 1.8445C24.9163 1.8445 25.0211 1.88134 25.0948 1.955C25.1741 2.023 25.2138 2.13067 25.2138 2.278V4.4625C25.2138 4.79684 25.2818 5.04334 25.4178 5.202C25.5538 5.36067 25.7691 5.44 26.0638 5.44C26.3868 5.44 26.6474 5.33234 26.8458 5.117C27.0498 4.896 27.1518 4.607 27.1518 4.25V2.278C27.1518 2.13067 27.1886 2.023 27.2623 1.955C27.3359 1.88134 27.4436 1.8445 27.5853 1.8445C27.7213 1.8445 27.8261 1.88134 27.8998 1.955C27.9734 2.023 28.0103 2.13067 28.0103 2.278V5.678C28.0103 5.967 27.8714 6.1115 27.5938 6.1115C27.4634 6.1115 27.3614 6.07467 27.2878 6.001C27.2141 5.92167 27.1773 5.814 27.1773 5.678V4.9555L27.2878 5.1425C27.1744 5.45984 26.9931 5.7035 26.7438 5.8735C26.4944 6.0435 26.1998 6.1285 25.8598 6.1285ZM31.0011 6.1285C30.6385 6.1285 30.3183 6.0435 30.0406 5.8735C29.7686 5.69784 29.5561 5.4485 29.4031 5.1255C29.2501 4.79684 29.1736 4.41434 29.1736 3.978C29.1736 3.53034 29.2501 3.14784 29.4031 2.8305C29.5561 2.51317 29.7686 2.26667 30.0406 2.091C30.3183 1.91534 30.6385 1.8275 31.0011 1.8275C31.3638 1.8275 31.6755 1.91817 31.9361 2.0995C32.2025 2.27517 32.381 2.51317 32.4716 2.8135H32.3781V0.433502C32.3781 0.291835 32.415 0.184168 32.4886 0.110501C32.5623 0.036835 32.6671 1.84774e-06 32.8031 1.84774e-06C32.9391 1.84774e-06 33.044 0.036835 33.1176 0.110501C33.197 0.184168 33.2366 0.291835 33.2366 0.433502V5.678C33.2366 5.814 33.1998 5.92167 33.1261 6.001C33.0525 6.07467 32.9476 6.1115 32.8116 6.1115C32.6756 6.1115 32.5708 6.07467 32.4971 6.001C32.4235 5.92167 32.3866 5.814 32.3866 5.678V4.93L32.4801 5.117C32.3895 5.423 32.211 5.6695 31.9446 5.8565C31.684 6.03784 31.3695 6.1285 31.0011 6.1285ZM31.2221 5.4655C31.4545 5.4655 31.6585 5.40884 31.8341 5.2955C32.0098 5.18217 32.1458 5.015 32.2421 4.794C32.3441 4.573 32.3951 4.301 32.3951 3.978C32.3951 3.49067 32.2875 3.12234 32.0721 2.873C31.8568 2.62367 31.5735 2.499 31.2221 2.499C30.9841 2.499 30.7773 2.55567 30.6016 2.669C30.426 2.77667 30.2871 2.941 30.1851 3.162C30.0888 3.383 30.0406 3.655 30.0406 3.978C30.0406 4.45967 30.1483 4.828 30.3636 5.083C30.579 5.338 30.8651 5.4655 31.2221 5.4655ZM35.0671 6.103C34.9311 6.103 34.8263 6.06334 34.7526 5.984C34.6789 5.899 34.6421 5.78284 34.6421 5.6355V2.3205C34.6421 2.17317 34.6789 2.05984 34.7526 1.9805C34.8263 1.90117 34.9311 1.8615 35.0671 1.8615C35.2031 1.8615 35.3079 1.90117 35.3816 1.9805C35.4609 2.05984 35.5006 2.17317 35.5006 2.3205V5.6355C35.5006 5.78284 35.4638 5.899 35.3901 5.984C35.3164 6.06334 35.2088 6.103 35.0671 6.103ZM35.0671 0.977502C34.8971 0.977502 34.7639 0.935002 34.6676 0.850002C34.5769 0.765002 34.5316 0.646002 34.5316 0.493002C34.5316 0.334335 34.5769 0.215335 34.6676 0.136002C34.7639 0.0510017 34.8971 0.00850174 35.0671 0.00850174C35.2371 0.00850174 35.3674 0.0510017 35.4581 0.136002C35.5544 0.215335 35.6026 0.334335 35.6026 0.493002C35.6026 0.646002 35.5544 0.765002 35.4581 0.850002C35.3674 0.935002 35.2371 0.977502 35.0671 0.977502ZM38.7875 7.6585C38.4815 7.6585 38.184 7.62734 37.895 7.565C37.6117 7.50267 37.3538 7.40067 37.1215 7.259C37.0365 7.21367 36.9798 7.157 36.9515 7.089C36.9232 7.02667 36.9147 6.9615 36.926 6.8935C36.943 6.8255 36.9742 6.766 37.0195 6.715C37.0648 6.664 37.1187 6.63 37.181 6.613C37.249 6.596 37.3198 6.60734 37.3935 6.647C37.6428 6.783 37.878 6.87367 38.099 6.919C38.3257 6.97 38.5353 6.9955 38.728 6.9955C39.1247 6.9955 39.4222 6.8935 39.6205 6.6895C39.8188 6.49117 39.918 6.1965 39.918 5.8055V4.9385H39.9945C39.9095 5.25017 39.731 5.49667 39.459 5.678C39.187 5.85934 38.8725 5.95 38.5155 5.95C38.1415 5.95 37.8157 5.865 37.538 5.695C37.2603 5.51934 37.045 5.2785 36.892 4.9725C36.739 4.66084 36.6625 4.29817 36.6625 3.8845C36.6625 3.57284 36.705 3.29234 36.79 3.043C36.8807 2.79367 37.0053 2.57834 37.164 2.397C37.3283 2.21567 37.5238 2.07684 37.7505 1.9805C37.9828 1.8785 38.2378 1.8275 38.5155 1.8275C38.8782 1.8275 39.1927 1.91817 39.459 2.0995C39.731 2.28084 39.9067 2.52734 39.986 2.839L39.901 2.9835V2.278C39.901 2.13634 39.9378 2.02867 40.0115 1.955C40.0908 1.88134 40.1957 1.8445 40.326 1.8445C40.462 1.8445 40.5668 1.88134 40.6405 1.955C40.7142 2.02867 40.751 2.13634 40.751 2.278V5.7035C40.751 6.3495 40.5838 6.83684 40.2495 7.1655C39.9152 7.49417 39.4278 7.6585 38.7875 7.6585ZM38.7195 5.2785C38.9688 5.2785 39.1813 5.22184 39.357 5.1085C39.5327 4.99517 39.6687 4.83367 39.765 4.624C39.8613 4.41434 39.9095 4.16784 39.9095 3.8845C39.9095 3.4595 39.8018 3.12234 39.5865 2.873C39.3768 2.62367 39.0878 2.499 38.7195 2.499C38.4758 2.499 38.2662 2.55567 38.0905 2.669C37.9148 2.78234 37.776 2.94384 37.674 3.1535C37.5777 3.3575 37.5295 3.60117 37.5295 3.8845C37.5295 4.31517 37.6372 4.65517 37.8525 4.9045C38.0678 5.15384 38.3568 5.2785 38.7195 5.2785ZM46.4756 7.6585C46.1696 7.6585 45.8721 7.62734 45.5831 7.565C45.2998 7.50267 45.0419 7.40067 44.8096 7.259C44.7246 7.21367 44.6679 7.157 44.6396 7.089C44.6113 7.02667 44.6028 6.9615 44.6141 6.8935C44.6311 6.8255 44.6623 6.766 44.7076 6.715C44.7529 6.664 44.8068 6.63 44.8691 6.613C44.9371 6.596 45.0079 6.60734 45.0816 6.647C45.3309 6.783 45.5661 6.87367 45.7871 6.919C46.0138 6.97 46.2234 6.9955 46.4161 6.9955C46.8128 6.9955 47.1103 6.8935 47.3086 6.6895C47.5069 6.49117 47.6061 6.1965 47.6061 5.8055V4.9385H47.6826C47.5976 5.25017 47.4191 5.49667 47.1471 5.678C46.8751 5.85934 46.5606 5.95 46.2036 5.95C45.8296 5.95 45.5038 5.865 45.2261 5.695C44.9484 5.51934 44.7331 5.2785 44.5801 4.9725C44.4271 4.66084 44.3506 4.29817 44.3506 3.8845C44.3506 3.57284 44.3931 3.29234 44.4781 3.043C44.5688 2.79367 44.6934 2.57834 44.8521 2.397C45.0164 2.21567 45.2119 2.07684 45.4386 1.9805C45.6709 1.8785 45.9259 1.8275 46.2036 1.8275C46.5663 1.8275 46.8808 1.91817 47.1471 2.0995C47.4191 2.28084 47.5948 2.52734 47.6741 2.839L47.5891 2.9835V2.278C47.5891 2.13634 47.6259 2.02867 47.6996 1.955C47.7789 1.88134 47.8838 1.8445 48.0141 1.8445C48.1501 1.8445 48.2549 1.88134 48.3286 1.955C48.4023 2.02867 48.4391 2.13634 48.4391 2.278V5.7035C48.4391 6.3495 48.2719 6.83684 47.9376 7.1655C47.6033 7.49417 47.1159 7.6585 46.4756 7.6585ZM46.4076 5.2785C46.6569 5.2785 46.8694 5.22184 47.0451 5.1085C47.2208 4.99517 47.3568 4.83367 47.4531 4.624C47.5494 4.41434 47.5976 4.16784 47.5976 3.8845C47.5976 3.4595 47.4899 3.12234 47.2746 2.873C47.0649 2.62367 46.7759 2.499 46.4076 2.499C46.1639 2.499 45.9543 2.55567 45.7786 2.669C45.6029 2.78234 45.4641 2.94384 45.3621 3.1535C45.2658 3.3575 45.2176 3.60117 45.2176 3.8845C45.2176 4.31517 45.3253 4.65517 45.5406 4.9045C45.7559 5.15384 46.0449 5.2785 46.4076 5.2785ZM51.646 6.1285C51.2266 6.1285 50.864 6.04067 50.558 5.865C50.2576 5.68934 50.0225 5.44 49.8525 5.117C49.6825 4.794 49.5975 4.41434 49.5975 3.978C49.5975 3.64367 49.6456 3.34617 49.742 3.0855C49.8383 2.82484 49.9743 2.601 50.15 2.414C50.3313 2.22134 50.5466 2.07684 50.796 1.9805C51.051 1.8785 51.3343 1.8275 51.646 1.8275C52.0596 1.8275 52.4166 1.91534 52.717 2.091C53.023 2.26667 53.261 2.516 53.431 2.839C53.601 3.15634 53.686 3.536 53.686 3.978C53.686 4.30667 53.6378 4.60417 53.5415 4.8705C53.4451 5.13684 53.3063 5.3635 53.125 5.5505C52.9493 5.7375 52.734 5.882 52.479 5.984C52.2296 6.08034 51.952 6.1285 51.646 6.1285ZM51.646 5.4655C51.8783 5.4655 52.0823 5.40884 52.258 5.2955C52.4336 5.18217 52.5696 5.015 52.666 4.794C52.768 4.573 52.819 4.301 52.819 3.978C52.819 3.49067 52.7113 3.12234 52.496 2.873C52.2806 2.62367 51.9973 2.499 51.646 2.499C51.408 2.499 51.2011 2.55567 51.0255 2.669C50.8498 2.77667 50.711 2.941 50.609 3.162C50.5126 3.383 50.4645 3.655 50.4645 3.978C50.4645 4.45967 50.5721 4.828 50.7875 5.083C51.0028 5.338 51.289 5.4655 51.646 5.4655ZM56.1846 6.1285C55.7426 6.1285 55.4083 6.001 55.1816 5.746C54.9606 5.48534 54.8501 5.11134 54.8501 4.624V0.433502C54.8501 0.291835 54.887 0.184168 54.9606 0.110501C55.0343 0.036835 55.1391 1.84774e-06 55.2751 1.84774e-06C55.4111 1.84774e-06 55.516 0.036835 55.5896 0.110501C55.669 0.184168 55.7086 0.291835 55.7086 0.433502V4.573C55.7086 4.85634 55.7653 5.06884 55.8786 5.2105C55.9976 5.3465 56.1676 5.4145 56.3886 5.4145C56.4396 5.4145 56.485 5.4145 56.5246 5.4145C56.5643 5.40884 56.604 5.40317 56.6436 5.3975C56.7116 5.39184 56.7598 5.41167 56.7881 5.457C56.8165 5.49667 56.8306 5.58167 56.8306 5.712C56.8306 5.831 56.8051 5.9245 56.7541 5.9925C56.7031 6.05484 56.621 6.0945 56.5076 6.1115C56.4566 6.11717 56.4028 6.12 56.3461 6.12C56.2895 6.12567 56.2356 6.1285 56.1846 6.1285ZM58.2536 6.1115C58.1176 6.1115 58.0099 6.07467 57.9306 6.001C57.8569 5.92167 57.8201 5.814 57.8201 5.678V2.567H57.3441C57.2364 2.567 57.1514 2.53867 57.0891 2.482C57.0267 2.41967 56.9956 2.3375 56.9956 2.2355C56.9956 2.12784 57.0267 2.04567 57.0891 1.989C57.1514 1.93234 57.2364 1.904 57.3441 1.904H58.0666L57.8201 2.1335V1.8275C57.8201 1.2665 57.9589 0.844335 58.2366 0.561002C58.5142 0.272002 58.9194 0.102002 59.4521 0.0510017L59.7156 0.0340019C59.8119 0.0226684 59.8884 0.036835 59.9451 0.0765019C60.0017 0.116168 60.0386 0.167168 60.0556 0.229501C60.0726 0.291835 60.0726 0.357002 60.0556 0.425001C60.0442 0.487335 60.0159 0.544002 59.9706 0.595002C59.9252 0.646002 59.8686 0.674335 59.8006 0.680002L59.6391 0.688502C59.3047 0.716835 59.0611 0.813168 58.9081 0.977502C58.7551 1.13617 58.6786 1.37984 58.6786 1.7085V2.04L58.5596 1.904H59.5031C59.6221 1.904 59.7099 1.93234 59.7666 1.989C59.8289 2.04567 59.8601 2.12784 59.8601 2.2355C59.8601 2.3375 59.8289 2.41967 59.7666 2.482C59.7099 2.53867 59.6221 2.567 59.5031 2.567H58.6786V5.678C58.6786 5.967 58.5369 6.1115 58.2536 6.1115ZM62.2725 6.1285C61.9325 6.1285 61.6463 6.069 61.414 5.95C61.1817 5.831 61.0088 5.65534 60.8955 5.423C60.7822 5.19067 60.7255 4.90734 60.7255 4.573V2.567H60.2155C60.1022 2.567 60.0143 2.53867 59.952 2.482C59.8897 2.41967 59.8585 2.3375 59.8585 2.2355C59.8585 2.12784 59.8897 2.04567 59.952 1.989C60.0143 1.93234 60.1022 1.904 60.2155 1.904H60.7255V1.0285C60.7255 0.886835 60.7623 0.779168 60.836 0.705502C60.9153 0.631835 61.023 0.595002 61.159 0.595002C61.295 0.595002 61.3998 0.631835 61.4735 0.705502C61.5472 0.779168 61.584 0.886835 61.584 1.0285V1.904H62.5785C62.6918 1.904 62.7797 1.93234 62.842 1.989C62.9043 2.04567 62.9355 2.12784 62.9355 2.2355C62.9355 2.3375 62.9043 2.41967 62.842 2.482C62.7797 2.53867 62.6918 2.567 62.5785 2.567H61.584V4.505C61.584 4.80534 61.6463 5.032 61.771 5.185C61.9013 5.338 62.111 5.4145 62.4 5.4145C62.502 5.4145 62.5898 5.406 62.6635 5.389C62.7428 5.36634 62.808 5.35217 62.859 5.3465C62.9213 5.3465 62.9723 5.36917 63.012 5.4145C63.0517 5.45417 63.0715 5.5335 63.0715 5.6525C63.0715 5.7375 63.0545 5.81684 63.0205 5.8905C62.9922 5.96417 62.9383 6.01234 62.859 6.035C62.791 6.05767 62.6975 6.0775 62.5785 6.0945C62.4652 6.11717 62.3632 6.1285 62.2725 6.1285ZM64.3087 6.103C64.1727 6.103 64.0679 6.06334 63.9942 5.984C63.9205 5.899 63.8837 5.78284 63.8837 5.6355V2.3205C63.8837 2.17317 63.9205 2.05984 63.9942 1.9805C64.0679 1.90117 64.1727 1.8615 64.3087 1.8615C64.4447 1.8615 64.5495 1.90117 64.6232 1.9805C64.7025 2.05984 64.7422 2.17317 64.7422 2.3205V5.6355C64.7422 5.78284 64.7054 5.899 64.6317 5.984C64.558 6.06334 64.4504 6.103 64.3087 6.103ZM64.3087 0.977502C64.1387 0.977502 64.0055 0.935002 63.9092 0.850002C63.8185 0.765002 63.7732 0.646002 63.7732 0.493002C63.7732 0.334335 63.8185 0.215335 63.9092 0.136002C64.0055 0.0510017 64.1387 0.00850174 64.3087 0.00850174C64.4787 0.00850174 64.609 0.0510017 64.6997 0.136002C64.796 0.215335 64.8442 0.334335 64.8442 0.493002C64.8442 0.646002 64.796 0.765002 64.6997 0.850002C64.609 0.935002 64.4787 0.977502 64.3087 0.977502ZM65.4876 7.667C65.3856 7.67267 65.3034 7.65567 65.2411 7.616C65.1731 7.57634 65.1278 7.52534 65.1051 7.463C65.0768 7.40067 65.0683 7.3355 65.0796 7.2675C65.0853 7.20517 65.1136 7.1485 65.1646 7.0975C65.2099 7.05217 65.2723 7.02667 65.3516 7.021C65.6349 7.004 65.8418 6.9275 65.9721 6.7915C66.1081 6.6555 66.1761 6.44017 66.1761 6.1455V2.278C66.1761 2.13634 66.2129 2.02867 66.2866 1.955C66.3659 1.88134 66.4736 1.8445 66.6096 1.8445C66.7513 1.8445 66.8561 1.88134 66.9241 1.955C66.9978 2.02867 67.0346 2.13634 67.0346 2.278V6.0775C67.0346 6.42884 66.9751 6.71784 66.8561 6.9445C66.7428 7.17684 66.5728 7.34967 66.3461 7.463C66.1194 7.57634 65.8333 7.64434 65.4876 7.667ZM66.6096 0.977502C66.4396 0.977502 66.3064 0.935002 66.2101 0.850002C66.1194 0.765002 66.0741 0.646002 66.0741 0.493002C66.0741 0.334335 66.1194 0.215335 66.2101 0.136002C66.3064 0.0510017 66.4396 0.00850174 66.6096 0.00850174C66.7796 0.00850174 66.9099 0.0510017 67.0006 0.136002C67.0913 0.215335 67.1366 0.334335 67.1366 0.493002C67.1366 0.646002 67.0913 0.765002 67.0006 0.850002C66.9099 0.935002 66.7796 0.977502 66.6096 0.977502ZM70.0234 6.1285C69.6607 6.1285 69.3406 6.0435 69.0629 5.8735C68.7909 5.69784 68.5784 5.4485 68.4254 5.1255C68.2724 4.79684 68.1959 4.41434 68.1959 3.978C68.1959 3.53034 68.2724 3.14784 68.4254 2.8305C68.5784 2.51317 68.7909 2.26667 69.0629 2.091C69.3406 1.91534 69.6607 1.8275 70.0234 1.8275C70.3861 1.8275 70.6977 1.91817 70.9584 2.0995C71.2247 2.27517 71.4032 2.51317 71.4939 2.8135H71.4004V0.433502C71.4004 0.291835 71.4372 0.184168 71.5109 0.110501C71.5846 0.036835 71.6894 1.84774e-06 71.8254 1.84774e-06C71.9614 1.84774e-06 72.0662 0.036835 72.1399 0.110501C72.2192 0.184168 72.2589 0.291835 72.2589 0.433502V5.678C72.2589 5.814 72.2221 5.92167 72.1484 6.001C72.0747 6.07467 71.9699 6.1115 71.8339 6.1115C71.6979 6.1115 71.5931 6.07467 71.5194 6.001C71.4457 5.92167 71.4089 5.814 71.4089 5.678V4.93L71.5024 5.117C71.4117 5.423 71.2332 5.6695 70.9669 5.8565C70.7062 6.03784 70.3917 6.1285 70.0234 6.1285ZM70.2444 5.4655C70.4767 5.4655 70.6807 5.40884 70.8564 5.2955C71.0321 5.18217 71.1681 5.015 71.2644 4.794C71.3664 4.573 71.4174 4.301 71.4174 3.978C71.4174 3.49067 71.3097 3.12234 71.0944 2.873C70.8791 2.62367 70.5957 2.499 70.2444 2.499C70.0064 2.499 69.7996 2.55567 69.6239 2.669C69.4482 2.77667 69.3094 2.941 69.2074 3.162C69.1111 3.383 69.0629 3.655 69.0629 3.978C69.0629 4.45967 69.1706 4.828 69.3859 5.083C69.6012 5.338 69.8874 5.4655 70.2444 5.4655ZM75.6109 6.1285C75.1575 6.1285 74.7665 6.0435 74.4379 5.8735C74.1149 5.69784 73.8627 5.45134 73.6814 5.134C73.5057 4.811 73.4179 4.4285 73.4179 3.9865C73.4179 3.55584 73.5057 3.179 73.6814 2.856C73.857 2.533 74.0979 2.28084 74.4039 2.0995C74.7099 1.91817 75.0584 1.8275 75.4494 1.8275C75.7384 1.8275 75.9962 1.87567 76.2229 1.972C76.4495 2.06267 76.6422 2.19867 76.8009 2.38C76.9652 2.55567 77.087 2.771 77.1664 3.026C77.2514 3.281 77.2939 3.56717 77.2939 3.8845C77.2939 3.98084 77.2655 4.0545 77.2089 4.1055C77.1522 4.15084 77.0672 4.1735 76.9539 4.1735H74.0979V3.6465H76.7159L76.5714 3.7655C76.5714 3.48217 76.5289 3.24134 76.4439 3.043C76.3645 2.84467 76.2427 2.6945 76.0784 2.5925C75.9197 2.48484 75.7214 2.431 75.4834 2.431C75.217 2.431 74.9904 2.49334 74.8034 2.618C74.622 2.74267 74.4832 2.9155 74.3869 3.1365C74.2905 3.3575 74.2424 3.61534 74.2424 3.91V3.961C74.2424 4.45967 74.3585 4.8365 74.5909 5.0915C74.8289 5.34084 75.1717 5.4655 75.6194 5.4655C75.7894 5.4655 75.9679 5.44284 76.1549 5.3975C76.3475 5.35217 76.5289 5.27567 76.6989 5.168C76.7952 5.11134 76.8802 5.08584 76.9539 5.0915C77.0332 5.09717 77.0955 5.12267 77.1409 5.168C77.1919 5.21334 77.223 5.27 77.2344 5.338C77.2457 5.406 77.2344 5.47684 77.2004 5.5505C77.1664 5.6185 77.1069 5.68084 77.0219 5.7375C76.8292 5.86784 76.6054 5.967 76.3504 6.035C76.0954 6.09734 75.8489 6.1285 75.6109 6.1285ZM78.8548 6.1115C78.7188 6.1115 78.614 6.07467 78.5403 6.001C78.4666 5.92167 78.4298 5.814 78.4298 5.678V2.278C78.4298 2.13634 78.4666 2.02867 78.5403 1.955C78.614 1.88134 78.716 1.8445 78.8463 1.8445C78.9823 1.8445 79.0843 1.88134 79.1523 1.955C79.226 2.02867 79.2628 2.13634 79.2628 2.278V2.941L79.1693 2.788C79.294 2.47067 79.4895 2.23267 79.7558 2.074C80.0221 1.90967 80.3281 1.8275 80.6738 1.8275C81.0025 1.8275 81.2745 1.88984 81.4898 2.0145C81.7108 2.1335 81.8751 2.31767 81.9828 2.567C82.0905 2.81067 82.1443 3.1195 82.1443 3.4935V5.678C82.1443 5.814 82.1075 5.92167 82.0338 6.001C81.9601 6.07467 81.8553 6.1115 81.7193 6.1115C81.5776 6.1115 81.47 6.07467 81.3963 6.001C81.3226 5.92167 81.2858 5.814 81.2858 5.678V3.5445C81.2858 3.1875 81.215 2.92684 81.0733 2.7625C80.9373 2.59817 80.722 2.516 80.4273 2.516C80.0816 2.516 79.804 2.62367 79.5943 2.839C79.3903 3.05434 79.2883 3.34334 79.2883 3.706V5.678C79.2883 5.967 79.1438 6.1115 78.8548 6.1115ZM0.680005 15.1115C0.538339 15.1115 0.430672 15.0747 0.357005 15.001C0.283339 14.9217 0.246505 14.814 0.246505 14.678V11.278C0.246505 11.1363 0.283339 11.0287 0.357005 10.955C0.430672 10.8813 0.532672 10.8445 0.663005 10.8445C0.799005 10.8445 0.901005 10.8813 0.969005 10.955C1.04267 11.0287 1.07951 11.1363 1.07951 11.278V11.8985H0.994505C1.08517 11.5585 1.25234 11.3007 1.49601 11.125C1.73967 10.9493 2.05134 10.8473 2.43101 10.819C2.53301 10.8133 2.61234 10.8388 2.66901 10.8955C2.73134 10.9522 2.76534 11.04 2.77101 11.159C2.78234 11.278 2.75684 11.3743 2.69451 11.448C2.63217 11.516 2.53584 11.5557 2.40551 11.567L2.24401 11.584C1.87567 11.618 1.59517 11.7342 1.40251 11.9325C1.20984 12.1308 1.11351 12.4028 1.11351 12.7485V14.678C1.11351 14.814 1.07667 14.9217 1.00301 15.001C0.935005 15.0747 0.827339 15.1115 0.680005 15.1115ZM5.5058 15.1285C5.05247 15.1285 4.66147 15.0435 4.3328 14.8735C4.0098 14.6978 3.75763 14.4513 3.5763 14.134C3.40063 13.811 3.3128 13.4285 3.3128 12.9865C3.3128 12.5558 3.40063 12.179 3.5763 11.856C3.75197 11.533 3.9928 11.2808 4.2988 11.0995C4.6048 10.9182 4.9533 10.8275 5.3443 10.8275C5.6333 10.8275 5.89113 10.8757 6.1178 10.972C6.34447 11.0627 6.53713 11.1987 6.6958 11.38C6.86013 11.5557 6.98197 11.771 7.0613 12.026C7.1463 12.281 7.1888 12.5672 7.1888 12.8845C7.1888 12.9808 7.16047 13.0545 7.1038 13.1055C7.04713 13.1508 6.96213 13.1735 6.8488 13.1735H3.9928V12.6465H6.6108L6.4663 12.7655C6.4663 12.4822 6.4238 12.2413 6.3388 12.043C6.25947 11.8447 6.13763 11.6945 5.9733 11.5925C5.81463 11.4848 5.6163 11.431 5.3783 11.431C5.11197 11.431 4.8853 11.4933 4.6983 11.618C4.51697 11.7427 4.37813 11.9155 4.2818 12.1365C4.18547 12.3575 4.1373 12.6153 4.1373 12.91V12.961C4.1373 13.4597 4.25347 13.8365 4.4858 14.0915C4.7238 14.3408 5.06663 14.4655 5.5143 14.4655C5.6843 14.4655 5.8628 14.4428 6.0498 14.3975C6.24247 14.3522 6.4238 14.2757 6.5938 14.168C6.69013 14.1113 6.77513 14.0858 6.8488 14.0915C6.92813 14.0972 6.99047 14.1227 7.0358 14.168C7.0868 14.2133 7.11797 14.27 7.1293 14.338C7.14063 14.406 7.1293 14.4768 7.0953 14.5505C7.0613 14.6185 7.0018 14.6808 6.9168 14.7375C6.72413 14.8678 6.5003 14.967 6.2453 15.035C5.9903 15.0973 5.7438 15.1285 5.5058 15.1285ZM9.77823 15.1285C9.52889 15.1285 9.27106 15.1002 9.00473 15.0435C8.74406 14.9868 8.50323 14.8905 8.28223 14.7545C8.20856 14.7035 8.15756 14.6468 8.12923 14.5845C8.10089 14.5222 8.08956 14.4598 8.09523 14.3975C8.10656 14.3295 8.13206 14.2728 8.17173 14.2275C8.21706 14.1765 8.27089 14.1453 8.33323 14.134C8.40123 14.1227 8.47206 14.1368 8.54573 14.1765C8.76673 14.3012 8.97923 14.389 9.18323 14.44C9.38723 14.4853 9.58839 14.508 9.78673 14.508C10.0871 14.508 10.3137 14.4542 10.4667 14.3465C10.6197 14.2388 10.6962 14.0943 10.6962 13.913C10.6962 13.7657 10.6452 13.6523 10.5432 13.573C10.4412 13.488 10.2882 13.4228 10.0842 13.3775L9.27673 13.216C8.92539 13.1423 8.65906 13.012 8.47773 12.825C8.29639 12.638 8.20573 12.4 8.20573 12.111C8.20573 11.8503 8.27656 11.6237 8.41823 11.431C8.55989 11.2383 8.75823 11.091 9.01323 10.989C9.26823 10.8813 9.56289 10.8275 9.89723 10.8275C10.1466 10.8275 10.3817 10.8587 10.6027 10.921C10.8237 10.9833 11.0277 11.0768 11.2147 11.2015C11.2884 11.2412 11.3366 11.295 11.3592 11.363C11.3819 11.4253 11.3847 11.4877 11.3677 11.55C11.3564 11.6123 11.3281 11.669 11.2827 11.72C11.2374 11.7653 11.1807 11.7937 11.1127 11.805C11.0504 11.8107 10.9796 11.7937 10.9002 11.754C10.7302 11.6463 10.5602 11.5698 10.3902 11.5245C10.2259 11.4792 10.0616 11.4565 9.89723 11.4565C9.59689 11.4565 9.37023 11.5132 9.21723 11.6265C9.06989 11.7342 8.99623 11.8815 8.99623 12.0685C8.99623 12.2102 9.04156 12.3263 9.13223 12.417C9.22289 12.5077 9.36456 12.5728 9.55723 12.6125L10.3647 12.774C10.7331 12.8477 11.0107 12.9723 11.1977 13.148C11.3904 13.3237 11.4867 13.5617 11.4867 13.862C11.4867 14.253 11.3309 14.5618 11.0192 14.7885C10.7076 15.0152 10.2939 15.1285 9.77823 15.1285ZM14.5884 15.1285C14.1351 15.1285 13.7441 15.0435 13.4154 14.8735C13.0924 14.6978 12.8402 14.4513 12.6589 14.134C12.4832 13.811 12.3954 13.4285 12.3954 12.9865C12.3954 12.5558 12.4832 12.179 12.6589 11.856C12.8346 11.533 13.0754 11.2808 13.3814 11.0995C13.6874 10.9182 14.0359 10.8275 14.4269 10.8275C14.7159 10.8275 14.9737 10.8757 15.2004 10.972C15.4271 11.0627 15.6197 11.1987 15.7784 11.38C15.9427 11.5557 16.0646 11.771 16.1439 12.026C16.2289 12.281 16.2714 12.5672 16.2714 12.8845C16.2714 12.9808 16.2431 13.0545 16.1864 13.1055C16.1297 13.1508 16.0447 13.1735 15.9314 13.1735H13.0754V12.6465H15.6934L15.5489 12.7655C15.5489 12.4822 15.5064 12.2413 15.4214 12.043C15.3421 11.8447 15.2202 11.6945 15.0559 11.5925C14.8972 11.4848 14.6989 11.431 14.4609 11.431C14.1946 11.431 13.9679 11.4933 13.7809 11.618C13.5996 11.7427 13.4607 11.9155 13.3644 12.1365C13.2681 12.3575 13.2199 12.6153 13.2199 12.91V12.961C13.2199 13.4597 13.3361 13.8365 13.5684 14.0915C13.8064 14.3408 14.1492 14.4655 14.5969 14.4655C14.7669 14.4655 14.9454 14.4428 15.1324 14.3975C15.3251 14.3522 15.5064 14.2757 15.6764 14.168C15.7727 14.1113 15.8577 14.0858 15.9314 14.0915C16.0107 14.0972 16.0731 14.1227 16.1184 14.168C16.1694 14.2133 16.2006 14.27 16.2119 14.338C16.2232 14.406 16.2119 14.4768 16.1779 14.5505C16.1439 14.6185 16.0844 14.6808 15.9994 14.7375C15.8067 14.8678 15.5829 14.967 15.3279 15.035C15.0729 15.0973 14.8264 15.1285 14.5884 15.1285ZM17.8408 15.1115C17.6992 15.1115 17.5915 15.0747 17.5178 15.001C17.4442 14.9217 17.4073 14.814 17.4073 14.678V11.278C17.4073 11.1363 17.4442 11.0287 17.5178 10.955C17.5915 10.8813 17.6935 10.8445 17.8238 10.8445C17.9598 10.8445 18.0618 10.8813 18.1298 10.955C18.2035 11.0287 18.2403 11.1363 18.2403 11.278V11.8985H18.1553C18.246 11.5585 18.4132 11.3007 18.6568 11.125C18.9005 10.9493 19.2122 10.8473 19.5918 10.819C19.6938 10.8133 19.7732 10.8388 19.8298 10.8955C19.8922 10.9522 19.9262 11.04 19.9318 11.159C19.9432 11.278 19.9177 11.3743 19.8553 11.448C19.793 11.516 19.6967 11.5557 19.5663 11.567L19.4048 11.584C19.0365 11.618 18.756 11.7342 18.5633 11.9325C18.3707 12.1308 18.2743 12.4028 18.2743 12.7485V14.678C18.2743 14.814 18.2375 14.9217 18.1638 15.001C18.0958 15.0747 17.9882 15.1115 17.8408 15.1115ZM22.6421 15.1115C22.5231 15.1115 22.4182 15.0803 22.3276 15.018C22.2426 14.9557 22.1717 14.8593 22.1151 14.729L20.6956 11.431C20.6502 11.329 20.6332 11.2327 20.6446 11.142C20.6559 11.0513 20.6984 10.9805 20.7721 10.9295C20.8457 10.8728 20.9449 10.8445 21.0696 10.8445C21.1772 10.8445 21.2622 10.87 21.3246 10.921C21.3869 10.972 21.4436 11.0598 21.4946 11.1845L22.7781 14.3465H22.5401L23.8491 11.1845C23.9001 11.0598 23.9567 10.972 24.0191 10.921C24.0871 10.87 24.1806 10.8445 24.2996 10.8445C24.4016 10.8445 24.4809 10.8728 24.5376 10.9295C24.5999 10.9805 24.6367 11.0513 24.6481 11.142C24.6651 11.227 24.6509 11.3205 24.6056 11.4225L23.1691 14.729C23.1181 14.8593 23.0472 14.9557 22.9566 15.018C22.8659 15.0803 22.7611 15.1115 22.6421 15.1115ZM27.5234 15.1285C27.07 15.1285 26.679 15.0435 26.3504 14.8735C26.0274 14.6978 25.7752 14.4513 25.5939 14.134C25.4182 13.811 25.3304 13.4285 25.3304 12.9865C25.3304 12.5558 25.4182 12.179 25.5939 11.856C25.7695 11.533 26.0104 11.2808 26.3164 11.0995C26.6224 10.9182 26.9709 10.8275 27.3619 10.8275C27.6509 10.8275 27.9087 10.8757 28.1354 10.972C28.362 11.0627 28.5547 11.1987 28.7134 11.38C28.8777 11.5557 28.9995 11.771 29.0789 12.026C29.1639 12.281 29.2064 12.5672 29.2064 12.8845C29.2064 12.9808 29.178 13.0545 29.1214 13.1055C29.0647 13.1508 28.9797 13.1735 28.8664 13.1735H26.0104V12.6465H28.6284L28.4839 12.7655C28.4839 12.4822 28.4414 12.2413 28.3564 12.043C28.277 11.8447 28.1552 11.6945 27.9909 11.5925C27.8322 11.4848 27.6339 11.431 27.3959 11.431C27.1295 11.431 26.9029 11.4933 26.7159 11.618C26.5345 11.7427 26.3957 11.9155 26.2994 12.1365C26.203 12.3575 26.1549 12.6153 26.1549 12.91V12.961C26.1549 13.4597 26.271 13.8365 26.5034 14.0915C26.7414 14.3408 27.0842 14.4655 27.5319 14.4655C27.7019 14.4655 27.8804 14.4428 28.0674 14.3975C28.26 14.3522 28.4414 14.2757 28.6114 14.168C28.7077 14.1113 28.7927 14.0858 28.8664 14.0915C28.9457 14.0972 29.008 14.1227 29.0534 14.168C29.1044 14.2133 29.1355 14.27 29.1469 14.338C29.1582 14.406 29.1469 14.4768 29.1129 14.5505C29.0789 14.6185 29.0194 14.6808 28.9344 14.7375C28.7417 14.8678 28.5179 14.967 28.2629 15.035C28.0079 15.0973 27.7614 15.1285 27.5234 15.1285ZM30.7758 15.1115C30.6341 15.1115 30.5265 15.0747 30.4528 15.001C30.3791 14.9217 30.3423 14.814 30.3423 14.678V11.278C30.3423 11.1363 30.3791 11.0287 30.4528 10.955C30.5265 10.8813 30.6285 10.8445 30.7588 10.8445C30.8948 10.8445 30.9968 10.8813 31.0648 10.955C31.1385 11.0287 31.1753 11.1363 31.1753 11.278V11.8985H31.0903C31.181 11.5585 31.3481 11.3007 31.5918 11.125C31.8355 10.9493 32.1471 10.8473 32.5268 10.819C32.6288 10.8133 32.7081 10.8388 32.7648 10.8955C32.8271 10.9522 32.8611 11.04 32.8668 11.159C32.8781 11.278 32.8526 11.3743 32.7903 11.448C32.728 11.516 32.6316 11.5557 32.5013 11.567L32.3398 11.584C31.9715 11.618 31.691 11.7342 31.4983 11.9325C31.3056 12.1308 31.2093 12.4028 31.2093 12.7485V14.678C31.2093 14.814 31.1725 14.9217 31.0988 15.001C31.0308 15.0747 30.9231 15.1115 30.7758 15.1115ZM35.6016 15.1285C35.1483 15.1285 34.7573 15.0435 34.4286 14.8735C34.1056 14.6978 33.8534 14.4513 33.6721 14.134C33.4964 13.811 33.4086 13.4285 33.4086 12.9865C33.4086 12.5558 33.4964 12.179 33.6721 11.856C33.8478 11.533 34.0886 11.2808 34.3946 11.0995C34.7006 10.9182 35.0491 10.8275 35.4401 10.8275C35.7291 10.8275 35.9869 10.8757 36.2136 10.972C36.4403 11.0627 36.6329 11.1987 36.7916 11.38C36.9559 11.5557 37.0778 11.771 37.1571 12.026C37.2421 12.281 37.2846 12.5672 37.2846 12.8845C37.2846 12.9808 37.2563 13.0545 37.1996 13.1055C37.1429 13.1508 37.0579 13.1735 36.9446 13.1735H34.0886V12.6465H36.7066L36.5621 12.7655C36.5621 12.4822 36.5196 12.2413 36.4346 12.043C36.3553 11.8447 36.2334 11.6945 36.0691 11.5925C35.9104 11.4848 35.7121 11.431 35.4741 11.431C35.2078 11.431 34.9811 11.4933 34.7941 11.618C34.6128 11.7427 34.4739 11.9155 34.3776 12.1365C34.2813 12.3575 34.2331 12.6153 34.2331 12.91V12.961C34.2331 13.4597 34.3493 13.8365 34.5816 14.0915C34.8196 14.3408 35.1624 14.4655 35.6101 14.4655C35.7801 14.4655 35.9586 14.4428 36.1456 14.3975C36.3383 14.3522 36.5196 14.2757 36.6896 14.168C36.7859 14.1113 36.8709 14.0858 36.9446 14.0915C37.0239 14.0972 37.0863 14.1227 37.1316 14.168C37.1826 14.2133 37.2138 14.27 37.2251 14.338C37.2364 14.406 37.2251 14.4768 37.1911 14.5505C37.1571 14.6185 37.0976 14.6808 37.0126 14.7375C36.8199 14.8678 36.5961 14.967 36.3411 15.035C36.0861 15.0973 35.8396 15.1285 35.6016 15.1285ZM38.8455 15.1115C38.7095 15.1115 38.6047 15.0747 38.531 15.001C38.4574 14.9217 38.4205 14.814 38.4205 14.678V11.278C38.4205 11.1363 38.4574 11.0287 38.531 10.955C38.6047 10.8813 38.7067 10.8445 38.837 10.8445C38.973 10.8445 39.075 10.8813 39.143 10.955C39.2167 11.0287 39.2535 11.1363 39.2535 11.278V11.941L39.16 11.788C39.2847 11.4707 39.4802 11.2327 39.7465 11.074C40.0129 10.9097 40.3189 10.8275 40.6645 10.8275C40.9932 10.8275 41.2652 10.8898 41.4805 11.0145C41.7015 11.1335 41.8659 11.3177 41.9735 11.567C42.0812 11.8107 42.135 12.1195 42.135 12.4935V14.678C42.135 14.814 42.0982 14.9217 42.0245 15.001C41.9509 15.0747 41.846 15.1115 41.71 15.1115C41.5684 15.1115 41.4607 15.0747 41.387 15.001C41.3134 14.9217 41.2765 14.814 41.2765 14.678V12.5445C41.2765 12.1875 41.2057 11.9268 41.064 11.7625C40.928 11.5982 40.7127 11.516 40.418 11.516C40.0724 11.516 39.7947 11.6237 39.585 11.839C39.381 12.0543 39.279 12.3433 39.279 12.706V14.678C39.279 14.967 39.1345 15.1115 38.8455 15.1115Z" fill="#677A82"/>
</svg>
