<svg width="26" height="26" viewBox="0 0 26 26" fill="none" xmlns="http://www.w3.org/2000/svg">
<path d="M2.4375 13C2.4375 18.8296 7.1704 23.5625 13 23.5625C18.8296 23.5625 23.5625 18.8296 23.5625 13C23.5625 7.1704 18.8296 2.4375 13 2.4375C7.1704 2.4375 2.4375 7.1704 2.4375 13Z" fill="url(#paint0_linear_1_835)"/>
<path opacity="0.85" d="M8.36877 10.9688C8.36877 11.5069 8.80566 11.9438 9.34377 11.9438C9.88189 11.9438 10.3188 11.5069 10.3188 10.9688C10.3188 10.4306 9.88189 9.99375 9.34377 9.99375C8.80566 9.99375 8.36877 10.4306 8.36877 10.9688Z" fill="white"/>
<path opacity="0.85" d="M12.025 8.9375C12.025 9.47562 12.4619 9.9125 13 9.9125C13.5381 9.9125 13.975 9.47562 13.975 8.9375C13.975 8.39938 13.5381 7.9625 13 7.9625C12.4619 7.9625 12.025 8.39938 12.025 8.9375Z" fill="white"/>
<path opacity="0.85" d="M15.6813 10.9688C15.6813 11.5069 16.1182 11.9438 16.6563 11.9438C17.1944 11.9438 17.6313 11.5069 17.6313 10.9688C17.6313 10.4306 17.1944 9.99375 16.6563 9.99375C16.1182 9.99375 15.6813 10.4306 15.6813 10.9688Z" fill="white"/>
<path opacity="0.85" d="M9.58752 14.2188C9.58752 14.7569 10.0244 15.1938 10.5625 15.1938C11.1006 15.1938 11.5375 14.7569 11.5375 14.2188C11.5375 13.6806 11.1006 13.2438 10.5625 13.2438C10.0244 13.2438 9.58752 13.6806 9.58752 14.2188Z" fill="white"/>
<path opacity="0.85" d="M14.4625 14.2188C14.4625 14.7569 14.8994 15.1938 15.4375 15.1938C15.9756 15.1938 16.4125 14.7569 16.4125 14.2188C16.4125 13.6806 15.9756 13.2438 15.4375 13.2438C14.8994 13.2438 14.4625 13.6806 14.4625 14.2188Z" fill="white"/>
<path opacity="0.85" d="M12.025 17.0625C12.025 17.6006 12.4619 18.0375 13 18.0375C13.5381 18.0375 13.975 17.6006 13.975 17.0625C13.975 16.5244 13.5381 16.0875 13 16.0875C12.4619 16.0875 12.025 16.5244 12.025 17.0625Z" fill="white"/>
<path d="M17.875 5.6875L21.9375 3.25L20.3125 7.3125L17.875 5.6875Z" fill="#E8A92B"/>
<defs>
<linearGradient id="paint0_linear_1_835" x1="2.4375" y1="2.4375" x2="23.5625" y2="23.5625" gradientUnits="userSpaceOnUse">
<stop stop-color="#1AA7C0"/>
<stop offset="1" stop-color="#0E5E6F"/>
</linearGradient>
</defs>
</svg>
